<?xml version="1.0" encoding="UTF-8"?>
<svg width="32px" height="31px" viewBox="0 0 32 31" version="1.1" xmlns="http://www.w3.org/2000/svg" xmlns:xlink="http://www.w3.org/1999/xlink">
    <title>Combined Shape</title>
    <g id="Page-1" stroke="none" stroke-width="1" fill="none" fill-rule="evenodd">
        <g id="411_Main_x1024" transform="translate(-376.000000, -2097.000000)" fill="#00147C">
            <g id="Benefits" transform="translate(0.000000, 1779.000000)">
                <path d="M396.730982,318 L398.057892,334.817372 L408,339.691725 C405.087369,340.073557 403.200914,340.520961 402.340635,341.033938 C401.480356,341.546915 401.153533,342.41927 401.360166,343.651001 C398.435692,343.645271 396.328149,344.005544 395.037537,344.731818 C393.746925,345.458093 392.686024,346.88082 391.854835,349 C391.144388,346.879209 390.166491,345.456481 388.921145,344.731818 C387.6758,344.007155 385.589582,343.646883 382.662492,343.651001 C382.585686,342.387378 382.142509,341.515024 381.33296,341.033938 C380.560208,340.57472 378.905362,340.146191 376.368421,339.74835 L376,339.691725 L386.095349,334.384133 L387.136819,318 L388.27297,319.916791 C389.883186,319.751426 391.125529,319.668744 392,319.668744 C392.812008,319.668744 394.021138,319.740036 395.627387,319.882622 L396.00511,319.916791 L396.730982,318 Z M396.296928,328.358434 L392,329.716204 L387.761852,328.358434 L387.761852,332.703298 L390.061189,335.13131 L393.874377,335.13131 L396.296928,332.703298 L396.296928,328.358434 Z M388.105427,325.709757 L388.676322,326.919675 L390.641831,326.919675 L388.105427,325.709757 Z M395.975314,325.709757 L393.673628,326.919675 L395.523326,326.919675 L395.975314,325.709757 Z" id="Combined-Shape"></path>
            </g>
        </g>
    </g>
</svg>