<?xml version="1.0" encoding="UTF-8"?>
<svg width="170px" height="45px" viewBox="0 0 170 45" version="1.1" xmlns="http://www.w3.org/2000/svg" xmlns:xlink="http://www.w3.org/1999/xlink">
    <title>Group</title>
    <g id="Page-1" stroke="none" stroke-width="1" fill="none" fill-rule="evenodd">
        <g id="411_Main_x1440" transform="translate(-170.000000, -45.000000)">
            <g id="Header" transform="translate(170.000000, 40.000000)">
                <g id="Group" transform="translate(0.000000, 5.000000)">
                    <circle id="Oval" stroke="#00147C" stroke-width="2" cx="22.5" cy="22.5" r="21.5"></circle>
                    <circle id="Oval" fill="#FF6D1B" cx="22.5" cy="22.5" r="7.5"></circle>
                    <path d="M72.57,29 L72.57,25.96 L74.43,25.96 L74.43,23.98 L72.57,23.98 L72.57,14.6 L69.81,14.6 L63.09,24.24 L63.09,25.96 L70.33,25.96 L70.33,29 L72.57,29 Z M70.43,23.98 L65.71,23.98 L70.43,16.92 L70.43,23.98 Z M80.17,29 L80.17,14.8 L76.01,14.8 L76.01,16.88 L77.87,16.88 L77.87,29 L80.17,29 Z M87.17,29 L87.17,14.8 L83.01,14.8 L83.01,16.88 L84.87,16.88 L84.87,29 L87.17,29 Z M103.59,29 L103.59,27.26 L98.89,27.26 L98.89,15.1 L96.61,15.1 L96.61,29 L103.59,29 Z M111.83,29.14 C113.136667,29.14 114.333333,28.8366667 115.42,28.23 C116.506667,27.6233333 117.363333,26.7766667 117.99,25.69 C118.616667,24.6033333 118.93,23.38 118.93,22.02 C118.93,20.66 118.616667,19.44 117.99,18.36 C117.363333,17.28 116.506667,16.4366667 115.42,15.83 C114.333333,15.2233333 113.136667,14.92 111.83,14.92 C110.536667,14.92 109.346667,15.2233333 108.26,15.83 C107.173333,16.4366667 106.313333,17.28 105.68,18.36 C105.046667,19.44 104.73,20.66 104.73,22.02 C104.73,23.38 105.046667,24.6033333 105.68,25.69 C106.313333,26.7766667 107.173333,27.6233333 108.26,28.23 C109.346667,28.8366667 110.536667,29.14 111.83,29.14 Z M111.83,27.08 C110.91,27.08 110.09,26.87 109.37,26.45 C108.65,26.03 108.086667,25.4366667 107.68,24.67 C107.273333,23.9033333 107.07,23.02 107.07,22.02 C107.07,21.02 107.273333,20.14 107.68,19.38 C108.086667,18.62 108.65,18.0333333 109.37,17.62 C110.09,17.2066667 110.91,17 111.83,17 C112.75,17 113.57,17.2066667 114.29,17.62 C115.01,18.0333333 115.573333,18.62 115.98,19.38 C116.386667,20.14 116.59,21.02 116.59,22.02 C116.59,23.02 116.386667,23.9033333 115.98,24.67 C115.573333,25.4366667 115.01,26.03 114.29,26.45 C113.57,26.87 112.75,27.08 111.83,27.08 Z M127.51,29.12 C128.99,29.12 130.306667,28.76 131.46,28.04 C132.613333,27.32 133.45,26.2933333 133.97,24.96 L133.97,24.96 L131.23,24.96 C130.87,25.6533333 130.37,26.1766667 129.73,26.53 C129.09,26.8833333 128.35,27.06 127.51,27.06 C126.59,27.06 125.77,26.8533333 125.05,26.44 C124.33,26.0266667 123.766667,25.4366667 123.36,24.67 C122.953333,23.9033333 122.75,23.02 122.75,22.02 C122.75,21.02 122.953333,20.14 123.36,19.38 C123.766667,18.62 124.33,18.0333333 125.05,17.62 C125.77,17.2066667 126.59,17 127.51,17 C128.35,17 129.09,17.1766667 129.73,17.53 C130.37,17.8833333 130.87,18.4066667 131.23,19.1 L131.23,19.1 L133.97,19.1 C133.45,17.7666667 132.613333,16.7366667 131.46,16.01 C130.306667,15.2833333 128.99,14.92 127.51,14.92 C126.216667,14.92 125.026667,15.2233333 123.94,15.83 C122.853333,16.4366667 121.993333,17.28 121.36,18.36 C120.726667,19.44 120.41,20.66 120.41,22.02 C120.41,23.38 120.726667,24.6 121.36,25.68 C121.993333,26.76 122.85,27.6033333 123.93,28.21 C125.01,28.8166667 126.203333,29.12 127.51,29.12 Z M138.19,29 L139.19,26.16 L145.01,26.16 L146.01,29 L148.41,29 L143.43,15.08 L140.79,15.08 L135.81,29 L138.19,29 Z M144.39,24.38 L139.81,24.38 L142.11,17.84 L144.39,24.38 Z M155.85,29 L155.85,16.88 L159.55,16.88 L159.55,15.1 L149.85,15.1 L149.85,16.88 L153.57,16.88 L153.57,29 L155.85,29 Z M169.53,29 L169.53,27.22 L164.13,27.22 L164.13,22.84 L168.93,22.84 L168.93,21.08 L164.13,21.08 L164.13,16.86 L169.53,16.86 L169.53,15.08 L161.85,15.08 L161.85,29 L169.53,29 Z" id="411LOCATE" fill="#00147C" fill-rule="nonzero"></path>
                </g>
            </g>
        </g>
    </g>
</svg>